<mxfile host="app.diagrams.net" agent="Mozilla/5.0 (Macintosh; Intel Mac OS X 10_15_7) AppleWebKit/537.36 (KHTML, like Gecko) Chrome/127.0.0.0 Safari/537.36" version="24.7.6">
  <diagram name="第 1 页" id="U6TWU1SUxK5bOnsWs7KZ">
    <mxGraphModel dx="820" dy="537" grid="1" gridSize="10" guides="1" tooltips="1" connect="1" arrows="1" fold="1" page="1" pageScale="1" pageWidth="827" pageHeight="1169" math="0" shadow="0">
      <root>
        <mxCell id="0" />
        <mxCell id="1" parent="0" />
        <mxCell id="WMpQfnk7EKxo-tIuRI3D-8" value="" style="edgeStyle=orthogonalEdgeStyle;rounded=0;orthogonalLoop=1;jettySize=auto;html=1;" edge="1" parent="1" source="WMpQfnk7EKxo-tIuRI3D-1" target="WMpQfnk7EKxo-tIuRI3D-2">
          <mxGeometry relative="1" as="geometry" />
        </mxCell>
        <mxCell id="WMpQfnk7EKxo-tIuRI3D-1" value="&lt;meta charset=&quot;utf-8&quot;&gt;User" style="rounded=0;whiteSpace=wrap;html=1;fillColor=#ffe6cc;strokeColor=#d79b00;strokeWidth=6;" vertex="1" parent="1">
          <mxGeometry x="230" y="130" width="120" height="40" as="geometry" />
        </mxCell>
        <mxCell id="WMpQfnk7EKxo-tIuRI3D-9" value="" style="edgeStyle=orthogonalEdgeStyle;rounded=0;orthogonalLoop=1;jettySize=auto;html=1;" edge="1" parent="1" source="WMpQfnk7EKxo-tIuRI3D-2" target="WMpQfnk7EKxo-tIuRI3D-3">
          <mxGeometry relative="1" as="geometry" />
        </mxCell>
        <mxCell id="WMpQfnk7EKxo-tIuRI3D-2" value="Alexa Device" style="rounded=1;whiteSpace=wrap;html=1;fillColor=#dae8fc;strokeColor=#6c8ebf;strokeWidth=6;" vertex="1" parent="1">
          <mxGeometry x="230" y="200" width="120" height="60" as="geometry" />
        </mxCell>
        <mxCell id="WMpQfnk7EKxo-tIuRI3D-10" value="" style="edgeStyle=orthogonalEdgeStyle;rounded=0;orthogonalLoop=1;jettySize=auto;html=1;" edge="1" parent="1" source="WMpQfnk7EKxo-tIuRI3D-3" target="WMpQfnk7EKxo-tIuRI3D-4">
          <mxGeometry relative="1" as="geometry" />
        </mxCell>
        <mxCell id="WMpQfnk7EKxo-tIuRI3D-3" value="&lt;meta charset=&quot;utf-8&quot;&gt;Alexa Voice Service" style="rounded=1;whiteSpace=wrap;html=1;fillColor=#f5f5f5;strokeColor=#666666;fontColor=#333333;strokeWidth=6;" vertex="1" parent="1">
          <mxGeometry x="230" y="300" width="120" height="60" as="geometry" />
        </mxCell>
        <mxCell id="WMpQfnk7EKxo-tIuRI3D-4" value="Natural Language Processing (NLP) Service" style="rounded=1;whiteSpace=wrap;html=1;fillColor=#f5f5f5;strokeColor=#666666;fontColor=#333333;strokeWidth=6;" vertex="1" parent="1">
          <mxGeometry x="230" y="410" width="120" height="60" as="geometry" />
        </mxCell>
        <mxCell id="WMpQfnk7EKxo-tIuRI3D-14" value="" style="edgeStyle=orthogonalEdgeStyle;rounded=0;orthogonalLoop=1;jettySize=auto;html=1;" edge="1" parent="1" source="WMpQfnk7EKxo-tIuRI3D-5" target="WMpQfnk7EKxo-tIuRI3D-6">
          <mxGeometry relative="1" as="geometry" />
        </mxCell>
        <mxCell id="WMpQfnk7EKxo-tIuRI3D-16" style="edgeStyle=orthogonalEdgeStyle;rounded=0;orthogonalLoop=1;jettySize=auto;html=1;entryX=1;entryY=0.5;entryDx=0;entryDy=0;" edge="1" parent="1" source="WMpQfnk7EKxo-tIuRI3D-5" target="WMpQfnk7EKxo-tIuRI3D-2">
          <mxGeometry relative="1" as="geometry">
            <Array as="points">
              <mxPoint x="490" y="230" />
            </Array>
          </mxGeometry>
        </mxCell>
        <mxCell id="WMpQfnk7EKxo-tIuRI3D-5" value="Music Service API" style="rounded=1;whiteSpace=wrap;html=1;fillColor=#f5f5f5;strokeColor=#666666;fontColor=#333333;strokeWidth=6;" vertex="1" parent="1">
          <mxGeometry x="430" y="410" width="120" height="60" as="geometry" />
        </mxCell>
        <mxCell id="WMpQfnk7EKxo-tIuRI3D-17" style="edgeStyle=orthogonalEdgeStyle;rounded=0;orthogonalLoop=1;jettySize=auto;html=1;entryX=0.5;entryY=1;entryDx=0;entryDy=0;" edge="1" parent="1" source="WMpQfnk7EKxo-tIuRI3D-6" target="WMpQfnk7EKxo-tIuRI3D-5">
          <mxGeometry relative="1" as="geometry" />
        </mxCell>
        <mxCell id="WMpQfnk7EKxo-tIuRI3D-6" value="Music Database" style="rounded=1;whiteSpace=wrap;html=1;fillColor=#f5f5f5;strokeColor=#666666;fontColor=#333333;strokeWidth=6;" vertex="1" parent="1">
          <mxGeometry x="430" y="530" width="120" height="60" as="geometry" />
        </mxCell>
      </root>
    </mxGraphModel>
  </diagram>
</mxfile>
